<svg xmlns="http://www.w3.org/2000/svg" viewBox="0 0 511.999 511.999" style="enable-background:new 0 0 511.999 511.999" xml:space="preserve"><path style="fill:#3e3b43" d="M243.416 41.476h25.164V209.08h-25.164zM50.413 145.07h94.694v36.218H50.413zM363.151 145.07h94.694v36.218h-94.694z"/><path style="fill:#e1fd9f" d="M438.179 470.523h-26.676c-27.14 0-51.533-16.556-61.555-41.779l-12.941-54.229c-3.158-13.234-14.985-22.571-28.591-22.571H205.471c-13.412 0-25.123 9.079-28.466 22.067l-14.442 56.11c-10.374 24.491-34.391 40.402-60.989 40.402H73.821c-36.581 0-66.235-29.654-66.235-66.235V212.047c0-23.653 19.174-42.827 42.827-42.827h128.048l12.202 14.702a15.9 15.9 0 0 0 12.236 5.746h105.617c4.73 0 9.215-2.106 12.235-5.746l12.202-14.702h128.635c23.653 0 42.827 19.174 42.827 42.827v192.241c0 36.581-29.656 66.235-66.236 66.235z"/><path style="fill:#c2fb3b" d="M461.583 169.219h-46.958c23.653 0 42.827 19.174 42.827 42.827v192.241c0 33.125-24.316 60.569-56.073 65.459 3.314.512 6.694.777 10.119.777h26.676c36.581 0 66.235-29.654 66.235-66.235V212.047c.002-23.653-19.173-42.828-42.826-42.828z"/><path style="fill:#c2fb3b" d="M438.179 443.975h-26.676c-27.14 0-51.533-16.556-61.555-41.778l-12.941-54.229c-3.158-13.234-14.985-22.571-28.591-22.571H205.471c-13.412 0-25.123 9.079-28.466 22.067l-14.442 56.11c-10.374 24.491-34.391 40.402-60.989 40.402H73.821c-36.581 0-66.235-29.654-66.235-66.235v26.548c0 36.581 29.654 66.235 66.235 66.235h27.753c26.598 0 50.616-15.911 60.989-40.402l14.442-56.11c3.344-12.989 15.054-22.067 28.466-22.067h102.944c13.606 0 25.433 9.337 28.591 22.571l12.941 54.229c10.022 25.221 34.415 41.779 61.555 41.779h26.676c36.581 0 66.235-29.654 66.235-66.235v-26.548c.002 36.58-29.654 66.234-66.234 66.234z"/><path style="fill:#3e3b43" d="M136.913 270.683h-29.849v-29.849H71.375v29.849H41.527v35.689h29.848v29.848h35.689v-29.848h29.849z"/><circle style="fill:#ff3f62" cx="424.076" cy="245.579" r="15.801"/><circle style="fill:#ff3f62" cx="424.076" cy="318.165" r="15.801"/><circle style="fill:#ff3f62" cx="459.858" cy="282.383" r="15.801"/><circle style="fill:#ff3f62" cx="388.284" cy="282.383" r="15.801"/><path style="fill:#c2fb3b" d="M224.821 267.569h-22.236c-5.955 0-10.827 4.872-10.827 10.827v.236c0 5.955 4.872 10.827 10.827 10.827h22.236c5.955 0 10.827-4.872 10.827-10.827v-.236c-.001-5.956-4.872-10.827-10.827-10.827zM308.657 267.569h-22.236c-5.955 0-10.827 4.872-10.827 10.827v.236c0 5.955 4.872 10.827 10.827 10.827h22.236c5.955 0 10.827-4.872 10.827-10.827v-.236c-.001-5.956-4.872-10.827-10.827-10.827z"/><path style="fill:#2f2d30" d="M50.413 158.501h94.694v10.716H50.413zM363.151 158.501h94.694v10.716h-94.694zM243.416 153.565h25.164v36.1h-25.164z"/><path style="fill:#3e3b43" d="M224.821 260.489h-22.236c-5.955 0-10.827 4.872-10.827 10.827v.236c0 5.955 4.872 10.827 10.827 10.827h22.236c5.955 0 10.827-4.872 10.827-10.827v-.236c-.001-5.955-4.872-10.827-10.827-10.827zM308.657 260.489h-22.236c-5.955 0-10.827 4.872-10.827 10.827v.236c0 5.955 4.872 10.827 10.827 10.827h22.236c5.955 0 10.827-4.872 10.827-10.827v-.236c-.001-5.955-4.872-10.827-10.827-10.827z"/><path d="M136.913 263.097H114.65v-22.263a7.585 7.585 0 0 0-7.585-7.585h-35.69a7.585 7.585 0 0 0-7.585 7.585v22.263H41.527a7.585 7.585 0 0 0-7.585 7.585v35.689a7.585 7.585 0 0 0 7.585 7.585H63.79v22.264a7.585 7.585 0 0 0 7.585 7.585h35.689a7.585 7.585 0 0 0 7.585-7.585v-22.264h22.263a7.585 7.585 0 0 0 7.585-7.585v-35.689a7.584 7.584 0 0 0-7.584-7.585zm-7.586 35.689h-22.263a7.585 7.585 0 0 0-7.585 7.585v22.264H78.96v-22.264a7.585 7.585 0 0 0-7.585-7.585H49.112v-20.519h22.263a7.585 7.585 0 0 0 7.585-7.585v-22.263h20.519v22.263a7.585 7.585 0 0 0 7.585 7.585h22.263v20.519zM424.073 268.962c12.895 0 23.386-10.491 23.386-23.386s-10.491-23.386-23.386-23.386-23.386 10.491-23.386 23.386 10.491 23.386 23.386 23.386zm0-31.6c4.53 0 8.215 3.685 8.215 8.215 0 4.53-3.685 8.215-8.215 8.215s-8.215-3.685-8.215-8.215c0-4.53 3.685-8.215 8.215-8.215zM424.073 294.783c-12.895 0-23.386 10.491-23.386 23.386s10.491 23.386 23.386 23.386 23.386-10.491 23.386-23.386-10.491-23.386-23.386-23.386zm0 31.601c-4.53 0-8.215-3.685-8.215-8.215s3.685-8.215 8.215-8.215 8.215 3.685 8.215 8.215-3.685 8.215-8.215 8.215z"/><path d="M459.863 258.993c-12.895 0-23.386 10.491-23.386 23.386s10.491 23.386 23.386 23.386 23.386-10.491 23.386-23.386-10.491-23.386-23.386-23.386zm0 31.6c-4.53 0-8.215-3.685-8.215-8.215s3.685-8.215 8.215-8.215 8.215 3.685 8.215 8.215-3.685 8.215-8.215 8.215zM411.668 282.379c0-12.895-10.491-23.386-23.386-23.386s-23.386 10.491-23.386 23.386 10.491 23.386 23.386 23.386c12.896 0 23.386-10.491 23.386-23.386zm-23.385 8.214c-4.53 0-8.215-3.685-8.215-8.215s3.685-8.215 8.215-8.215 8.215 3.685 8.215 8.215-3.685 8.215-8.215 8.215zM224.821 252.904h-22.236c-10.152 0-18.412 8.26-18.412 18.412v.236c0 10.152 8.26 18.412 18.412 18.412h22.236c10.152 0 18.412-8.26 18.412-18.412v-.236c0-10.152-8.26-18.412-18.412-18.412zm3.241 18.647c0 1.757-1.485 3.241-3.241 3.241h-22.236c-1.757 0-3.241-1.485-3.241-3.241v-.236c0-1.757 1.485-3.241 3.241-3.241h22.236c1.757 0 3.241 1.485 3.241 3.241v.236zM308.657 252.904h-22.236c-10.152 0-18.412 8.26-18.412 18.412v.236c0 10.152 8.26 18.412 18.412 18.412h22.236c10.152 0 18.412-8.26 18.412-18.412v-.236c0-10.152-8.26-18.412-18.412-18.412zm3.241 18.647c0 1.757-1.485 3.241-3.241 3.241h-22.236c-1.757 0-3.241-1.485-3.241-3.241v-.236c0-1.757 1.485-3.241 3.241-3.241h22.236c1.757 0 3.241 1.485 3.241 3.241v.236z"/><path d="M465.426 161.795v-18.692a7.585 7.585 0 0 0-7.585-7.585h-94.693a7.585 7.585 0 0 0-7.585 7.585v18.531h-22.61a7.586 7.586 0 0 0-5.837 2.741l-12.201 14.702a8.294 8.294 0 0 1-6.399 3.005h-32.349V41.475a7.585 7.585 0 0 0-7.585-7.585h-25.163a7.585 7.585 0 0 0-7.585 7.585v140.606H202.9a8.29 8.29 0 0 1-6.398-3.004L184.3 164.374a7.584 7.584 0 0 0-5.837-2.741h-25.771v-18.531a7.585 7.585 0 0 0-7.585-7.585H50.413a7.585 7.585 0 0 0-7.585 7.585v19.103C18.615 165.875 0 186.827 0 212.047v192.241c0 40.705 33.116 73.821 73.821 73.821h27.753a73.692 73.692 0 0 0 67.975-45.028c.147-.347.267-.704.361-1.068l14.441-56.11a21.805 21.805 0 0 1 21.12-16.373h102.944a21.737 21.737 0 0 1 21.213 16.747l12.941 54.229c.084.355.194.702.329 1.041 11.239 28.286 38.167 46.562 68.604 46.562h26.676c40.705 0 73.821-33.116 73.821-73.821V212.047c.001-26.505-20.564-48.282-46.573-50.252zm-94.694-11.107h79.523v10.946h-79.523v-10.946zM251.004 49.06h9.992v133.021h-9.992V49.06zM57.998 150.688h79.522v10.946H57.998v-10.946zm438.831 253.6c0 32.34-26.311 58.65-58.65 58.65h-26.676c-24.005 0-45.263-14.309-54.307-36.501l-12.811-53.681c-3.99-16.719-18.78-28.396-35.968-28.396H205.471c-16.878 0-31.605 11.416-35.812 27.762l-14.297 55.546a58.546 58.546 0 0 1-53.789 35.271H73.821c-32.339-.001-58.65-26.311-58.65-58.651V212.047c0-19.432 15.81-35.242 35.242-35.242H174.899l9.928 11.961a23.413 23.413 0 0 0 18.072 8.486h38.613a7.54 7.54 0 0 0 1.906.252h25.163c.659 0 1.297-.093 1.906-.252h38.027a23.417 23.417 0 0 0 18.072-8.486l9.927-11.961H461.585c19.432 0 35.242 15.81 35.242 35.242v192.241h.002z"/></svg>